<svg width="44" height="44" viewBox="0 0 44 44" fill="none" xmlns="http://www.w3.org/2000/svg">
<g clip-path="url(#clip0_4988_6155)">
<path d="M36.4592 8.06097C33.7136 6.82275 30.7706 5.90754 27.693 5.38713C27.6656 5.38187 27.6372 5.38526 27.6118 5.39683C27.5864 5.40841 27.5652 5.42759 27.5512 5.45173C27.1744 6.11391 26.7544 6.97708 26.4601 7.659C23.1961 7.17131 19.8777 7.17131 16.6136 7.659C16.2858 6.90325 15.9161 6.16636 15.5064 5.45173C15.4925 5.4273 15.4715 5.40768 15.4461 5.39549C15.4208 5.38331 15.3924 5.37914 15.3646 5.38354C12.2888 5.90395 9.34577 6.81916 6.59835 8.05918C6.57471 8.06909 6.55468 8.086 6.54093 8.10763C0.956367 16.3176 -0.574362 24.3247 0.177544 32.2314C0.179636 32.2508 0.185647 32.2695 0.195211 32.2865C0.204774 32.3034 0.217691 32.3183 0.233174 32.3301C3.49273 34.7032 7.12834 36.511 10.9878 37.6778C11.0147 37.6861 11.0434 37.686 11.0703 37.6777C11.0972 37.6694 11.121 37.6532 11.1385 37.6311C11.969 36.5204 12.7049 35.3421 13.3386 34.1085C13.3474 34.0916 13.3524 34.0731 13.3534 34.0541C13.3544 34.0351 13.3514 34.0161 13.3444 33.9984C13.3374 33.9807 13.3267 33.9647 13.313 33.9515C13.2993 33.9383 13.2829 33.9282 13.265 33.9218C12.1058 33.4853 10.9825 32.9585 9.90566 32.3463C9.88631 32.3352 9.87 32.3195 9.85821 32.3006C9.84641 32.2817 9.83949 32.2602 9.83806 32.238C9.83664 32.2157 9.84076 32.1935 9.85005 32.1732C9.85934 32.153 9.87352 32.1354 9.8913 32.1219C10.1174 31.9551 10.3435 31.781 10.5589 31.6069C10.5782 31.5913 10.6016 31.5813 10.6263 31.5781C10.651 31.575 10.6761 31.5787 10.6988 31.589C17.7459 34.7545 25.378 34.7545 32.3426 31.589C32.3654 31.5781 32.3907 31.5739 32.4158 31.5767C32.4409 31.5796 32.4646 31.5894 32.4844 31.6051C32.6997 31.781 32.924 31.9551 33.1519 32.1219C33.1699 32.1351 33.1843 32.1525 33.1939 32.1726C33.2035 32.1926 33.2079 32.2148 33.2069 32.237C33.2058 32.2592 33.1992 32.2808 33.1878 32.2999C33.1763 32.319 33.1603 32.3349 33.1412 32.3463C32.068 32.9636 30.9518 33.4858 29.78 33.9201C29.762 33.9266 29.7456 33.9369 29.7319 33.9503C29.7182 33.9636 29.7075 33.9798 29.7006 33.9976C29.6936 34.0154 29.6905 34.0346 29.6915 34.0537C29.6925 34.0728 29.6976 34.0915 29.7064 34.1085C30.3525 35.3413 31.0918 36.5149 31.9047 37.6293C31.9216 37.6522 31.9452 37.6693 31.9722 37.6783C31.9991 37.6873 32.0282 37.6877 32.0555 37.6796C35.9215 36.5161 39.563 34.7074 42.8262 32.3301C42.8421 32.319 42.8555 32.3046 42.8654 32.2879C42.8753 32.2711 42.8815 32.2525 42.8836 32.2332C43.7809 23.0919 41.3798 15.1493 36.5149 8.11122C36.5029 8.08835 36.4832 8.07051 36.4592 8.06097ZM14.392 27.4167C12.2708 27.4167 10.5212 25.4984 10.5212 23.1457C10.5212 20.7913 12.2367 18.8748 14.392 18.8748C16.5633 18.8748 18.2969 20.8075 18.2628 23.1457C18.2628 25.5001 16.5472 27.4167 14.392 27.4167ZM28.7033 27.4167C26.5804 27.4167 24.8325 25.4984 24.8325 23.1457C24.8325 20.7913 26.5463 18.8748 28.7033 18.8748C30.8747 18.8748 32.6082 20.8075 32.5741 23.1457C32.5741 25.5001 30.8765 27.4167 28.7033 27.4167Z" fill="white"/>
</g>
<defs>
<clipPath id="clip0_4988_6155">
<rect width="43.0686" height="43.0686" fill="white"/>
</clipPath>
</defs>
</svg>
