<svg width="43" height="44" viewBox="0 0 43 44" fill="none" xmlns="http://www.w3.org/2000/svg">
<path d="M25.6627 26.1864C26.9221 24.9013 27.5518 23.3505 27.5518 21.5342C27.5518 19.7179 26.9221 18.1671 25.6627 16.882C24.4032 15.5968 22.8835 14.9543 21.1035 14.9543C19.3235 14.9543 17.8038 15.5968 16.5443 16.882C15.2849 18.1671 14.6552 19.7179 14.6552 21.5342C14.6552 23.3505 15.2849 24.9013 16.5443 26.1864C17.8038 27.4715 19.3235 28.1141 21.1035 28.1141C22.8835 28.1141 24.4032 27.4715 25.6627 26.1864ZM28.1312 14.3631C30.0623 16.3337 31.0279 18.724 31.0279 21.5342C31.0279 24.3444 30.0623 26.7347 28.1312 28.7053C26.2 30.6758 23.8575 31.6611 21.1035 31.6611C18.3495 31.6611 16.007 30.6758 14.0758 28.7053C12.1447 26.7347 11.1791 24.3444 11.1791 21.5342C11.1791 18.724 12.1447 16.3337 14.0758 14.3631C16.007 12.3926 18.3495 11.4073 21.1035 11.4073C23.8575 11.4073 26.2 12.3926 28.1312 14.3631ZM33.0682 9.32536C33.5216 9.78801 33.7483 10.3449 33.7483 10.996C33.7483 11.6472 33.5216 12.2041 33.0682 12.6667C32.6148 13.1294 32.069 13.3607 31.4309 13.3607C30.7928 13.3607 30.247 13.1294 29.7936 12.6667C29.3402 12.2041 29.1135 11.6472 29.1135 10.996C29.1135 10.3449 29.3402 9.78801 29.7936 9.32536C30.247 8.86271 30.7928 8.63138 31.4309 8.63138C32.069 8.63138 32.6148 8.86271 33.0682 9.32536ZM23.0179 5.34142C21.8592 5.34142 21.2211 5.34142 21.1035 5.34142C20.986 5.34142 20.3395 5.34142 19.164 5.34142C18.0053 5.32429 17.1237 5.32429 16.5192 5.34142C15.9146 5.34142 15.1002 5.36712 14.0758 5.41853C13.0683 5.4528 12.2035 5.53848 11.4814 5.67556C10.7761 5.79551 10.18 5.94972 9.693 6.13821C8.85338 6.48091 8.11451 6.97784 7.47639 7.62897C6.83828 8.28011 6.35129 9.03406 6.01544 9.89082C5.83073 10.3877 5.6712 11.0046 5.53686 11.7414C5.41931 12.4611 5.33535 13.3436 5.28497 14.3888C5.25139 15.4169 5.2262 16.2394 5.2094 16.8563C5.2094 17.4732 5.2094 18.3813 5.2094 19.5808C5.2262 20.7631 5.23459 21.4142 5.23459 21.5342C5.23459 21.6541 5.2262 22.3138 5.2094 23.5133C5.2094 24.6956 5.2094 25.5952 5.2094 26.2121C5.2262 26.829 5.25139 27.66 5.28497 28.7053C5.33535 29.7334 5.41931 30.6159 5.53686 31.3527C5.6712 32.0724 5.83073 32.6807 6.01544 33.1776C6.35129 34.0343 6.83828 34.7883 7.47639 35.4394C8.11451 36.0906 8.85338 36.5875 9.693 36.9302C10.18 37.1187 10.7761 37.2815 11.4814 37.4185C12.2035 37.5385 13.0683 37.6242 14.0758 37.6756C15.1002 37.7098 15.9146 37.7355 16.5192 37.7527C17.1237 37.7527 18.0053 37.7527 19.164 37.7527C20.3395 37.7355 20.986 37.727 21.1035 37.727C21.2211 37.727 21.8592 37.7355 23.0179 37.7527C24.1933 37.7527 25.0833 37.7527 25.6879 37.7527C26.2924 37.7355 27.0984 37.7098 28.106 37.6756C29.1303 37.6242 29.9951 37.5385 30.7004 37.4185C31.4225 37.2815 32.027 37.1187 32.514 36.9302C33.3536 36.5875 34.0925 36.0906 34.7306 35.4394C35.3687 34.7883 35.8557 34.0343 36.1916 33.1776C36.3763 32.6807 36.5274 32.0724 36.645 31.3527C36.7793 30.6159 36.8633 29.7334 36.8969 28.7053C36.9472 27.66 36.9724 26.829 36.9724 26.2121C36.9892 25.5952 36.9892 24.6956 36.9724 23.5133C36.9724 22.3138 36.9724 21.6541 36.9724 21.5342C36.9724 21.4142 36.9724 20.7631 36.9724 19.5808C36.9892 18.3813 36.9892 17.4732 36.9724 16.8563C36.9724 16.2394 36.9472 15.4169 36.8969 14.3888C36.8633 13.3436 36.7793 12.4611 36.645 11.7414C36.5274 11.0046 36.3763 10.3877 36.1916 9.89082C35.8557 9.03406 35.3687 8.28011 34.7306 7.62897C34.0925 6.97784 33.3536 6.48091 32.514 6.13821C32.027 5.94972 31.4225 5.79551 30.7004 5.67556C29.9951 5.53848 29.1303 5.4528 28.106 5.41853C27.0984 5.36712 26.2924 5.34142 25.6879 5.34142C25.0833 5.32429 24.1933 5.32429 23.0179 5.34142ZM40.3225 13.3864C40.4065 14.8943 40.4485 17.6102 40.4485 21.5342C40.4485 25.4582 40.4065 28.1741 40.3225 29.682C40.1546 33.2461 39.1135 36.0049 37.1991 37.9583C35.2848 39.9117 32.5812 40.9741 29.0883 41.1454C27.6106 41.2311 24.949 41.274 21.1035 41.274C17.258 41.274 14.5964 41.2311 13.1187 41.1454C9.62583 40.9741 6.92224 39.9117 5.00789 37.9583C3.09355 36.0049 2.05241 33.2461 1.88449 29.682C1.80053 28.1741 1.75854 25.4582 1.75854 21.5342C1.75854 17.6102 1.80053 14.8943 1.88449 13.3864C2.05241 9.82228 3.09355 7.06351 5.00789 5.1101C6.92224 3.15668 9.62583 2.0943 13.1187 1.92295C14.5964 1.83727 17.258 1.79443 21.1035 1.79443C24.949 1.79443 27.6106 1.83727 29.0883 1.92295C32.5812 2.0943 35.2848 3.15668 37.1991 5.1101C39.1135 7.06351 40.1546 9.82228 40.3225 13.3864Z" fill="white"/>
</svg>
