<svg width="43" height="44" viewBox="0 0 43 44" fill="none" xmlns="http://www.w3.org/2000/svg">
<g clip-path="url(#clip0_4988_6151)">
<path d="M42.2072 8.18026C40.6376 8.88281 38.9652 9.34849 37.2215 9.5746C39.0153 8.48174 40.3844 6.76438 41.028 4.69439C39.3556 5.71189 37.509 6.4306 35.5411 6.83167C33.9531 5.10624 31.6897 4.0376 29.2206 4.0376C24.4301 4.0376 20.5734 8.00529 20.5734 12.8693C20.5734 13.5692 20.6314 14.2422 20.7739 14.8828C13.5802 14.5248 7.21479 11.0066 2.93868 5.64729C2.19214 6.96895 1.75424 8.48174 1.75424 10.1103C1.75424 13.1681 3.29744 15.8788 5.59773 17.4481C4.20753 17.4212 2.84371 17.0093 1.68829 16.3606C1.68829 16.3875 1.68829 16.4225 1.68829 16.4575C1.68829 20.7482 4.68764 24.3121 8.62082 25.1331C7.91649 25.3296 7.14884 25.4238 6.35218 25.4238C5.79821 25.4238 5.23897 25.3915 4.71402 25.2731C5.83514 28.7697 9.01651 31.3404 12.7993 31.4238C9.85538 33.7738 6.11741 35.1896 2.07079 35.1896C1.36118 35.1896 0.680591 35.1573 0 35.0685C3.83294 37.5907 8.37549 39.0308 13.2742 39.0308C29.1968 39.0308 37.9021 25.5719 37.9021 13.9057C37.9021 13.5154 37.8889 13.1385 37.8704 12.7644C39.5877 11.5208 41.0307 9.9676 42.2072 8.18026Z" fill="white"/>
</g>
<defs>
<clipPath id="clip0_4988_6151">
<rect width="42.2072" height="43.0686" fill="white"/>
</clipPath>
</defs>
</svg>
