<svg width="24" height="19" viewBox="0 0 24 19" fill="none" xmlns="http://www.w3.org/2000/svg">
<path d="M20.1058 1.55516C18.5918 0.836406 16.9689 0.305156 15.2717 0.00307309C15.2566 1.88353e-05 15.241 0.00198711 15.227 0.00870573C15.213 0.0154243 15.2013 0.0265609 15.1935 0.0405731C14.9857 0.424948 14.7542 0.92599 14.5919 1.32182C12.7919 1.03874 10.962 1.03874 9.16204 1.32182C8.98127 0.883136 8.77743 0.45539 8.55147 0.0405731C8.54381 0.0263884 8.53222 0.0149999 8.51825 0.00792739C8.50428 0.000854859 8.4886 -0.00156543 8.47329 0.000989659C6.77714 0.303073 5.15423 0.834323 3.63917 1.55411C3.62614 1.55987 3.61509 1.56968 3.60751 1.58224C0.527924 6.34786 -0.316191 10.9958 0.0984444 15.5854C0.0995982 15.5966 0.102913 15.6075 0.108187 15.6173C0.113461 15.6272 0.120583 15.6358 0.129121 15.6427C1.92659 17.0202 3.93143 18.0695 6.05969 18.7468C6.07453 18.7516 6.0904 18.7516 6.10523 18.7468C6.12006 18.742 6.13316 18.7325 6.14282 18.7197C6.60079 18.075 7.00662 17.391 7.35605 16.6749C7.3609 16.6652 7.36369 16.6544 7.36424 16.6434C7.3648 16.6323 7.36309 16.6213 7.35924 16.611C7.3554 16.6008 7.3495 16.5915 7.34195 16.5838C7.33439 16.5762 7.32537 16.5703 7.31548 16.5666C6.67621 16.3132 6.05681 16.0074 5.46298 15.652C5.45231 15.6456 5.44331 15.6365 5.43681 15.6255C5.4303 15.6146 5.42649 15.6021 5.4257 15.5892C5.42492 15.5763 5.42719 15.5634 5.43231 15.5516C5.43744 15.5398 5.44525 15.5296 5.45506 15.5218C5.57975 15.4249 5.70443 15.3239 5.82318 15.2229C5.83387 15.2138 5.84675 15.208 5.86038 15.2062C5.874 15.2043 5.88785 15.2065 5.90037 15.2124C9.78646 17.0499 13.9952 17.0499 17.8357 15.2124C17.8483 15.2061 17.8623 15.2037 17.8761 15.2053C17.8899 15.207 17.903 15.2127 17.9139 15.2218C18.0327 15.3239 18.1564 15.4249 18.282 15.5218C18.2919 15.5294 18.2999 15.5395 18.3052 15.5512C18.3105 15.5629 18.3129 15.5757 18.3123 15.5886C18.3117 15.6015 18.3081 15.6141 18.3018 15.6251C18.2955 15.6362 18.2866 15.6454 18.2761 15.652C17.6843 16.0104 17.0688 16.3135 16.4226 16.5656C16.4127 16.5694 16.4036 16.5753 16.3961 16.5831C16.3885 16.5909 16.3826 16.6002 16.3788 16.6106C16.375 16.6209 16.3733 16.632 16.3738 16.6431C16.3744 16.6542 16.3772 16.6651 16.382 16.6749C16.7383 17.3906 17.146 18.0718 17.5943 18.7187C17.6036 18.732 17.6166 18.7419 17.6315 18.7471C17.6463 18.7523 17.6624 18.7526 17.6774 18.7479C19.8093 18.0725 21.8174 17.0226 23.6169 15.6427C23.6257 15.6362 23.633 15.6278 23.6385 15.6181C23.6439 15.6084 23.6474 15.5976 23.6485 15.5864C24.1433 10.2802 22.8193 5.66974 20.1365 1.58432C20.1299 1.57105 20.1191 1.5607 20.1058 1.55516ZM7.93693 12.7906C6.76725 12.7906 5.8024 11.677 5.8024 10.3114C5.8024 8.94474 6.74844 7.83224 7.93693 7.83224C9.13433 7.83224 10.0903 8.95411 10.0715 10.3114C10.0715 11.6781 9.12542 12.7906 7.93693 12.7906ZM15.8289 12.7906C14.6582 12.7906 13.6943 11.677 13.6943 10.3114C13.6943 8.94474 14.6394 7.83224 15.8289 7.83224C17.0263 7.83224 17.9822 8.95411 17.9634 10.3114C17.9634 11.6781 17.0272 12.7906 15.8289 12.7906Z" fill="white"/>
</svg>
