<svg width="22" height="23" viewBox="0 0 22 23" fill="none" xmlns="http://www.w3.org/2000/svg">
<path d="M13.4509 14.1588C14.1595 13.4128 14.5139 12.5127 14.5139 11.4583C14.5139 10.404 14.1595 9.50385 13.4509 8.75787C12.7422 8.01188 11.887 7.63889 10.8854 7.63889C9.88381 7.63889 9.02866 8.01188 8.31997 8.75787C7.61129 9.50385 7.25694 10.404 7.25694 11.4583C7.25694 12.5127 7.61129 13.4128 8.31997 14.1588C9.02866 14.9048 9.88381 15.2778 10.8854 15.2778C11.887 15.2778 12.7422 14.9048 13.4509 14.1588ZM14.8399 7.29574C15.9265 8.43958 16.4699 9.82711 16.4699 11.4583C16.4699 13.0896 15.9265 14.4771 14.8399 15.6209C13.7532 16.7648 12.4351 17.3367 10.8854 17.3367C9.33576 17.3367 8.0176 16.7648 6.93095 15.6209C5.8443 14.4771 5.30097 13.0896 5.30097 11.4583C5.30097 9.82711 5.8443 8.43958 6.93095 7.29574C8.0176 6.15189 9.33576 5.57997 10.8854 5.57997C12.4351 5.57997 13.7532 6.15189 14.8399 7.29574ZM17.6179 4.37147C17.8731 4.64003 18.0006 4.96329 18.0006 5.34125C18.0006 5.71922 17.8731 6.04248 17.6179 6.31104C17.3628 6.57959 17.0557 6.71387 16.6966 6.71387C16.3376 6.71387 16.0305 6.57959 15.7753 6.31104C15.5202 6.04248 15.3927 5.71922 15.3927 5.34125C15.3927 4.96329 15.5202 4.64003 15.7753 4.37147C16.0305 4.10292 16.3376 3.96864 16.6966 3.96864C17.0557 3.96864 17.3628 4.10292 17.6179 4.37147ZM11.9626 2.05892C11.3106 2.05892 10.9516 2.05892 10.8854 2.05892C10.8193 2.05892 10.4555 2.05892 9.79404 2.05892C9.14205 2.04897 8.64597 2.04897 8.3058 2.05892C7.96563 2.05892 7.50735 2.07384 6.93095 2.10368C6.364 2.12357 5.87737 2.1733 5.47106 2.25288C5.07419 2.3225 4.73875 2.41202 4.46472 2.52143C3.99226 2.72036 3.5765 3.00881 3.21743 3.38677C2.85837 3.76474 2.58434 4.20238 2.39536 4.69971C2.29142 4.98815 2.20165 5.34623 2.12606 5.77392C2.05991 6.19168 2.01267 6.70392 1.98432 7.31066C1.96542 7.90744 1.95125 8.38487 1.9418 8.74295C1.9418 9.10102 1.9418 9.62818 1.9418 10.3244C1.95125 11.0107 1.95597 11.3887 1.95597 11.4583C1.95597 11.528 1.95125 11.9109 1.9418 12.6071C1.9418 13.2935 1.9418 13.8156 1.9418 14.1737C1.95125 14.5318 1.96542 15.0142 1.98432 15.6209C2.01267 16.2177 2.05991 16.73 2.12606 17.1577C2.20165 17.5754 2.29142 17.9285 2.39536 18.217C2.58434 18.7143 2.85837 19.1519 3.21743 19.5299C3.5765 19.9079 3.99226 20.1963 4.46472 20.3952C4.73875 20.5046 5.07419 20.5991 5.47106 20.6787C5.87737 20.7483 6.364 20.7981 6.93095 20.8279C7.50735 20.8478 7.96563 20.8627 8.3058 20.8727C8.64597 20.8727 9.14205 20.8727 9.79404 20.8727C10.4555 20.8627 10.8193 20.8577 10.8854 20.8577C10.9516 20.8577 11.3106 20.8627 11.9626 20.8727C12.6241 20.8727 13.1249 20.8727 13.465 20.8727C13.8052 20.8627 14.2588 20.8478 14.8257 20.8279C15.4021 20.7981 15.8887 20.7483 16.2856 20.6787C16.6919 20.5991 17.0321 20.5046 17.3061 20.3952C17.7786 20.1963 18.1943 19.9079 18.5534 19.5299C18.9125 19.1519 19.1865 18.7143 19.3755 18.217C19.4794 17.9285 19.5645 17.5754 19.6306 17.1577C19.7062 16.73 19.7534 16.2177 19.7723 15.6209C19.8007 15.0142 19.8149 14.5318 19.8149 14.1737C19.8243 13.8156 19.8243 13.2935 19.8149 12.6071C19.8149 11.9109 19.8149 11.528 19.8149 11.4583C19.8149 11.3887 19.8149 11.0107 19.8149 10.3244C19.8243 9.62818 19.8243 9.10102 19.8149 8.74295C19.8149 8.38487 19.8007 7.90744 19.7723 7.31066C19.7534 6.70392 19.7062 6.19168 19.6306 5.77392C19.5645 5.34623 19.4794 4.98815 19.3755 4.69971C19.1865 4.20238 18.9125 3.76474 18.5534 3.38677C18.1943 3.00881 17.7786 2.72036 17.3061 2.52143C17.0321 2.41202 16.6919 2.3225 16.2856 2.25288C15.8887 2.1733 15.4021 2.12357 14.8257 2.10368C14.2588 2.07384 13.8052 2.05892 13.465 2.05892C13.1249 2.04897 12.6241 2.04897 11.9626 2.05892ZM21.7 6.72879C21.7472 7.60408 21.7708 9.18059 21.7708 11.4583C21.7708 13.7361 21.7472 15.3126 21.7 16.1879C21.6055 18.2567 21.0196 19.8581 19.9424 20.992C18.8652 22.1259 17.3439 22.7426 15.3785 22.8421C14.547 22.8918 13.0493 22.9167 10.8854 22.9167C8.72156 22.9167 7.22387 22.8918 6.39235 22.8421C4.42692 22.7426 2.90561 22.1259 1.82841 20.992C0.751207 19.8581 0.16536 18.2567 0.0708686 16.1879C0.0236229 15.3126 0 13.7361 0 11.4583C0 9.18059 0.0236229 7.60408 0.0708686 6.72879C0.16536 4.65992 0.751207 3.05854 1.82841 1.92464C2.90561 0.790744 4.42692 0.174062 6.39235 0.0745978C7.22387 0.0248665 8.72156 0 10.8854 0C13.0493 0 14.547 0.0248665 15.3785 0.0745978C17.3439 0.174062 18.8652 0.790744 19.9424 1.92464C21.0196 3.05854 21.6055 4.65992 21.7 6.72879Z" fill="white"/>
</svg>
