<svg width="24" height="21" viewBox="0 0 24 21" fill="none" xmlns="http://www.w3.org/2000/svg">
<path d="M23.75 2.40469C22.8668 2.8125 21.9257 3.08281 20.9445 3.21406C21.9539 2.57969 22.7243 1.58281 23.0865 0.38125C22.1454 0.971875 21.1063 1.38906 19.999 1.62188C19.1054 0.620313 17.8318 0 16.4424 0C13.7468 0 11.5766 2.30313 11.5766 5.12656C11.5766 5.53281 11.6093 5.92344 11.6895 6.29531C7.64156 6.0875 4.05977 4.04531 1.65359 0.934375C1.23352 1.70156 0.987109 2.57969 0.987109 3.525C0.987109 5.3 1.85547 6.87344 3.14984 7.78437C2.36758 7.76875 1.60016 7.52969 0.95 7.15313C0.95 7.16875 0.95 7.18906 0.95 7.20937C0.95 9.7 2.63773 11.7687 4.85094 12.2453C4.45461 12.3594 4.02266 12.4141 3.57437 12.4141C3.26266 12.4141 2.94797 12.3953 2.65258 12.3266C3.28344 14.3562 5.07359 15.8484 7.20219 15.8969C5.54563 17.2609 3.44227 18.0828 1.16523 18.0828C0.765938 18.0828 0.382969 18.0641 0 18.0125C2.1568 19.4766 4.71289 20.3125 7.46938 20.3125C16.4291 20.3125 21.3275 12.5 21.3275 5.72812C21.3275 5.50156 21.3201 5.28281 21.3097 5.06563C22.276 4.34375 23.088 3.44219 23.75 2.40469Z" fill="white"/>
</svg>
