<svg width="24" height="17" viewBox="0 0 24 17" fill="none" xmlns="http://www.w3.org/2000/svg">
<path d="M22.9546 2.56777C22.6845 1.56369 21.8928 0.77219 20.8889 0.501823C19.0548 0 11.7185 0 11.7185 0C11.7185 0 4.38237 0 2.54831 0.482798C1.56369 0.752878 0.752735 1.56383 0.482655 2.56777C0 4.40168 0 8.20498 0 8.20498C0 8.20498 0 12.0275 0.482655 13.8422C0.753021 14.8461 1.54438 15.6376 2.54846 15.908C4.40168 16.41 11.7187 16.41 11.7187 16.41C11.7187 16.41 19.0548 16.41 20.8889 15.9272C21.893 15.6569 22.6845 14.8654 22.9548 13.8615C23.4374 12.0275 23.4374 8.22429 23.4374 8.22429C23.4374 8.22429 23.4567 4.40168 22.9546 2.56777ZM9.38272 11.7186V4.69136L15.4833 8.20498L9.38272 11.7186Z" fill="white"/>
</svg>
