<svg width="20" height="24" viewBox="0 0 20 24" fill="none" xmlns="http://www.w3.org/2000/svg">
<path fill-rule="evenodd" clip-rule="evenodd" d="M13.6942 3.82458C14.5585 2.79102 14.9922 1.67436 14.9922 0.478405V0.478391C14.9922 0.319769 14.9848 0.159877 14.9673 0C14.3652 0.0314709 13.725 0.215275 13.0482 0.547635C12.3699 0.885028 11.8106 1.30798 11.3708 1.81664C10.49 2.82128 9.99394 4.04998 9.99394 5.1981C9.99394 5.35678 10.004 5.50778 10.0215 5.65126C11.3896 5.7633 12.6512 5.05329 13.6942 3.82458ZM18.2956 20.9475C18.7878 20.2405 19.2126 19.4714 19.5715 18.636C19.7195 18.2817 19.8587 17.9127 19.9905 17.5274C19.3826 17.2706 18.8361 16.9089 18.3469 16.441C17.2672 15.4328 16.7179 14.1631 16.7017 12.6372C16.6842 10.6783 17.5675 9.15125 19.3533 8.061C18.3557 6.63213 16.8556 5.83902 14.8588 5.67665C14.122 5.61362 13.2225 5.77363 12.1568 6.16007C11.0298 6.57678 10.365 6.78579 10.1689 6.78579C9.90648 6.78579 9.30806 6.60704 8.37607 6.25454C7.44144 5.90323 6.68934 5.72448 6.11582 5.72448C5.06765 5.74204 4.09435 6.0166 3.19356 6.55537C2.29277 7.09415 1.57305 7.82807 1.03205 8.75846C0.343674 9.91676 0 11.299 0 12.9016C0 14.3006 0.254899 15.7457 0.763378 17.2381C1.23816 18.6197 1.84421 19.8316 2.58136 20.8767C3.26842 21.8553 3.84194 22.5461 4.30047 22.9491C5.01887 23.6222 5.73859 23.9425 6.46066 23.9115C6.93545 23.8953 7.55643 23.7315 8.32728 23.417C9.09696 23.1041 9.81654 22.9491 10.4875 22.9491C11.1272 22.9491 11.8269 23.1041 12.5882 23.417C13.347 23.7315 13.9989 23.8864 14.5395 23.8864C15.2925 23.8687 15.9956 23.5573 16.6519 22.9491C17.0753 22.5786 17.6246 21.9114 18.2956 20.9475Z" fill="white"/>
</svg>
