<svg width="13" height="13" viewBox="0 0 13 13" fill="none" xmlns="http://www.w3.org/2000/svg">
<path fill-rule="evenodd" clip-rule="evenodd" d="M6.54091 12.151C9.81064 11.9797 12.3224 9.1901 12.151 5.92037C11.9797 2.65064 9.1901 0.138914 5.92037 0.310273C2.65064 0.481633 0.138914 3.27119 0.310273 6.54091C0.481633 9.81064 3.27119 12.3224 6.54091 12.151ZM5.97119 10.5737C6.01664 10.5875 6.06244 10.593 6.10744 10.5907C6.23611 10.5839 6.35752 10.5142 6.42624 10.3982L9.29588 5.5777C9.37044 5.45229 9.36979 5.29639 9.29477 5.1713C9.21935 5.04623 9.08135 4.97312 8.93571 4.98075L6.61255 5.1025L6.76896 2.28707C6.77924 2.10566 6.66413 1.94072 6.48998 1.88771C6.31579 1.83391 6.12805 1.90668 6.03493 2.06314L3.16569 6.88366C3.09113 7.00907 3.09139 7.16499 3.1668 7.29006C3.24222 7.41513 3.38022 7.48824 3.52586 7.48061L5.84862 7.35888L5.69222 10.1743C5.68194 10.3557 5.79744 10.5206 5.97119 10.5737Z" fill="#FED428"/>
<path fill-rule="evenodd" clip-rule="evenodd" d="M6.54091 12.151C9.81064 11.9797 12.3224 9.1901 12.151 5.92037C11.9797 2.65064 9.1901 0.138914 5.92037 0.310273C2.65064 0.481633 0.138914 3.27119 0.310273 6.54091C0.481633 9.81064 3.27119 12.3224 6.54091 12.151ZM5.97119 10.5737C6.01664 10.5875 6.06244 10.593 6.10744 10.5907C6.23611 10.5839 6.35752 10.5142 6.42624 10.3982L9.29588 5.5777C9.37044 5.45229 9.36979 5.29639 9.29477 5.1713C9.21935 5.04623 9.08135 4.97312 8.93571 4.98075L6.61255 5.1025L6.76896 2.28707C6.77924 2.10566 6.66413 1.94072 6.48998 1.88771C6.31579 1.83391 6.12805 1.90668 6.03493 2.06314L3.16569 6.88366C3.09113 7.00907 3.09139 7.16499 3.1668 7.29006C3.24222 7.41513 3.38022 7.48824 3.52586 7.48061L5.84862 7.35888L5.69222 10.1743C5.68194 10.3557 5.79744 10.5206 5.97119 10.5737Z" fill="url(#paint0_radial_4639_1671)" fill-opacity="0.3"/>
<defs>
<radialGradient id="paint0_radial_4639_1671" cx="0" cy="0" r="1" gradientUnits="userSpaceOnUse" gradientTransform="translate(6.01345 2.08638) rotate(87) scale(10.0784 7.62132)">
<stop offset="0.015625" stop-color="#FDF300"/>
<stop offset="0.015725" stop-color="#FFF8BD"/>
<stop offset="0.526042" stop-color="#FED428"/>
<stop offset="1" stop-color="#FE8F28"/>
</radialGradient>
</defs>
</svg>
