<svg width="22" height="22" viewBox="0 0 22 22" fill="none" xmlns="http://www.w3.org/2000/svg">
<rect y="1.09365" width="20.8966" height="20.8966" rx="3.91812" transform="rotate(-3 0 1.09365)" fill="#6989ED" fill-opacity="0.4"/>
<path fill-rule="evenodd" clip-rule="evenodd" d="M7.83643 5.44193L8.96244 4.16955L7.7096 3.02183L6.58359 4.29422L7.83643 5.44193Z" fill="#42FEDA"/>
<path fill-rule="evenodd" clip-rule="evenodd" d="M7.83643 5.44193L8.96244 4.16955L7.7096 3.02183L6.58359 4.29422L7.83643 5.44193Z" fill="url(#paint0_linear_4651_14722)"/>
<path fill-rule="evenodd" clip-rule="evenodd" d="M14.387 13.286L14.3878 13.2867C14.543 13.4267 14.6601 13.6042 14.7285 13.8023C14.7969 14.0005 14.8143 14.213 14.7792 14.4197C14.7452 14.6274 14.6601 14.8233 14.5313 14.989C14.4025 15.1549 14.2341 15.2853 14.0416 15.3676L14.0917 15.066L14.0911 15.0664L14.041 15.3679L5.0434 19.2461L5.04075 19.2471C4.9079 19.3007 4.76717 19.3318 4.62421 19.3391L4.62147 19.3392C4.4239 19.3471 4.22744 19.307 4.04835 19.2225C3.86929 19.138 3.71289 19.0117 3.59181 18.8543C3.47074 18.6969 3.38836 18.5128 3.35117 18.3173C3.31399 18.1218 3.323 17.9201 3.37756 17.7289L3.37847 17.7258L6.22786 8.21875L6.22797 8.21838C6.28783 8.01652 6.39708 7.83298 6.54598 7.68504C6.69479 7.53719 6.87835 7.42974 7.07974 7.37308C7.28007 7.31541 7.49171 7.31083 7.69442 7.35977C7.89703 7.40868 8.08362 7.50934 8.23663 7.65172L8.23747 7.65249L14.387 13.286ZM5.97897 14.2163L8.20359 16.2542L9.91099 15.522L6.51617 12.4121L5.97897 14.2163ZM5.50111 15.8016L4.94766 17.6575L6.70395 16.9035L5.50111 15.8016ZM6.99389 10.8266L11.4108 14.8729L13.1182 14.1407L7.5311 9.02245L6.99389 10.8266Z" fill="#42FEDA"/>
<path fill-rule="evenodd" clip-rule="evenodd" d="M14.387 13.286L14.3878 13.2867C14.543 13.4267 14.6601 13.6042 14.7285 13.8023C14.7969 14.0005 14.8143 14.213 14.7792 14.4197C14.7452 14.6274 14.6601 14.8233 14.5313 14.989C14.4025 15.1549 14.2341 15.2853 14.0416 15.3676L14.0917 15.066L14.0911 15.0664L14.041 15.3679L5.0434 19.2461L5.04075 19.2471C4.9079 19.3007 4.76717 19.3318 4.62421 19.3391L4.62147 19.3392C4.4239 19.3471 4.22744 19.307 4.04835 19.2225C3.86929 19.138 3.71289 19.0117 3.59181 18.8543C3.47074 18.6969 3.38836 18.5128 3.35117 18.3173C3.31399 18.1218 3.323 17.9201 3.37756 17.7289L3.37847 17.7258L6.22786 8.21875L6.22797 8.21838C6.28783 8.01652 6.39708 7.83298 6.54598 7.68504C6.69479 7.53719 6.87835 7.42974 7.07974 7.37308C7.28007 7.31541 7.49171 7.31083 7.69442 7.35977C7.89703 7.40868 8.08362 7.50934 8.23663 7.65172L8.23747 7.65249L14.387 13.286ZM5.97897 14.2163L8.20359 16.2542L9.91099 15.522L6.51617 12.4121L5.97897 14.2163ZM5.50111 15.8016L4.94766 17.6575L6.70395 16.9035L5.50111 15.8016ZM6.99389 10.8266L11.4108 14.8729L13.1182 14.1407L7.5311 9.02245L6.99389 10.8266Z" fill="url(#paint1_linear_4651_14722)"/>
<path fill-rule="evenodd" clip-rule="evenodd" d="M10.9624 8.98712L10.9625 8.99038L10.9626 8.99364C10.973 9.19057 11.0598 9.37624 11.2052 9.50951C11.3505 9.64256 11.5424 9.71247 11.7392 9.70258C11.8364 9.69854 11.9316 9.67501 12.0195 9.63346C12.1079 9.5917 12.1869 9.53261 12.2521 9.45984C12.3173 9.38708 12.3674 9.30209 12.3998 9.2099C12.4314 9.11967 12.4455 9.02416 12.4413 8.92867C12.4406 8.76983 12.4719 8.61274 12.533 8.46703C12.5907 8.3475 12.6624 8.26873 12.7504 8.21536C12.8421 8.1598 12.9682 8.12162 13.1482 8.11219C13.9527 8.07002 14.5008 7.70356 14.8354 7.22431C15.1635 6.75444 15.2791 6.18785 15.2554 5.73555C15.2451 5.53861 15.1583 5.35294 15.0128 5.21967C14.8675 5.08661 14.6756 5.01671 14.4788 5.0266C14.3816 5.03065 14.2864 5.05417 14.1985 5.09572C14.1101 5.13748 14.0311 5.19657 13.9659 5.26934C13.9007 5.3421 13.8506 5.42709 13.8182 5.51928C13.7866 5.60952 13.7725 5.70502 13.7767 5.80051C13.7774 5.95935 13.7461 6.11644 13.6851 6.26216C13.6273 6.38168 13.5556 6.46045 13.4676 6.51382C13.376 6.56938 13.2498 6.60756 13.0698 6.617C12.1869 6.66327 11.4991 7.11094 11.1658 7.88953L11.1646 7.89243C11.0216 8.23866 10.9528 8.61179 10.9624 8.98712Z" fill="#42FEDA"/>
<path fill-rule="evenodd" clip-rule="evenodd" d="M10.9624 8.98712L10.9625 8.99038L10.9626 8.99364C10.973 9.19057 11.0598 9.37624 11.2052 9.50951C11.3505 9.64256 11.5424 9.71247 11.7392 9.70258C11.8364 9.69854 11.9316 9.67501 12.0195 9.63346C12.1079 9.5917 12.1869 9.53261 12.2521 9.45984C12.3173 9.38708 12.3674 9.30209 12.3998 9.2099C12.4314 9.11967 12.4455 9.02416 12.4413 8.92867C12.4406 8.76983 12.4719 8.61274 12.533 8.46703C12.5907 8.3475 12.6624 8.26873 12.7504 8.21536C12.8421 8.1598 12.9682 8.12162 13.1482 8.11219C13.9527 8.07002 14.5008 7.70356 14.8354 7.22431C15.1635 6.75444 15.2791 6.18785 15.2554 5.73555C15.2451 5.53861 15.1583 5.35294 15.0128 5.21967C14.8675 5.08661 14.6756 5.01671 14.4788 5.0266C14.3816 5.03065 14.2864 5.05417 14.1985 5.09572C14.1101 5.13748 14.0311 5.19657 13.9659 5.26934C13.9007 5.3421 13.8506 5.42709 13.8182 5.51928C13.7866 5.60952 13.7725 5.70502 13.7767 5.80051C13.7774 5.95935 13.7461 6.11644 13.6851 6.26216C13.6273 6.38168 13.5556 6.46045 13.4676 6.51382C13.376 6.56938 13.2498 6.60756 13.0698 6.617C12.1869 6.66327 11.4991 7.11094 11.1658 7.88953L11.1646 7.89243C11.0216 8.23866 10.9528 8.61179 10.9624 8.98712Z" fill="url(#paint2_linear_4651_14722)"/>
<path fill-rule="evenodd" clip-rule="evenodd" d="M16.5927 12.2372C16.5824 12.0398 16.4959 11.8537 16.3507 11.7194L15.2971 10.7542L15.2875 10.747C15.1383 10.6352 14.9529 10.5832 14.7674 10.6023C14.5819 10.6213 14.4109 10.7098 14.2873 10.8494C14.1639 10.9889 14.0966 11.1693 14.0974 11.3555C14.0981 11.5417 14.1669 11.7216 14.2913 11.8603L14.2993 11.8692L15.3535 12.8349L15.355 12.8363C15.5021 12.9665 15.6939 13.0343 15.8901 13.024C16.0864 13.0137 16.27 12.9263 16.4027 12.7814L16.4044 12.7794L16.4062 12.7775C16.5365 12.6288 16.6031 12.4346 16.5927 12.2372Z" fill="#42FEDA"/>
<path fill-rule="evenodd" clip-rule="evenodd" d="M16.5927 12.2372C16.5824 12.0398 16.4959 11.8537 16.3507 11.7194L15.2971 10.7542L15.2875 10.747C15.1383 10.6352 14.9529 10.5832 14.7674 10.6023C14.5819 10.6213 14.4109 10.7098 14.2873 10.8494C14.1639 10.9889 14.0966 11.1693 14.0974 11.3555C14.0981 11.5417 14.1669 11.7216 14.2913 11.8603L14.2993 11.8692L15.3535 12.8349L15.355 12.8363C15.5021 12.9665 15.6939 13.0343 15.8901 13.024C16.0864 13.0137 16.27 12.9263 16.4027 12.7814L16.4044 12.7794L16.4062 12.7775C16.5365 12.6288 16.6031 12.4346 16.5927 12.2372Z" fill="url(#paint3_linear_4651_14722)"/>
<path fill-rule="evenodd" clip-rule="evenodd" d="M10.1485 7.76387C10.3459 7.75353 10.5301 7.66386 10.661 7.51596C10.7917 7.36821 10.8586 7.17448 10.8483 6.97755L10.7691 5.46514C10.7587 5.26821 10.6719 5.08254 10.5265 4.94927C10.3808 4.81586 10.1882 4.74594 9.99088 4.75628C9.79352 4.76662 9.60929 4.8563 9.47841 5.00419C9.34766 5.15194 9.28074 5.34567 9.29106 5.5426L9.37032 7.05501C9.38064 7.25194 9.46744 7.43761 9.61292 7.57088C9.75855 7.70429 9.95114 7.77422 10.1485 7.76387Z" fill="#42FEDA"/>
<path fill-rule="evenodd" clip-rule="evenodd" d="M10.1485 7.76387C10.3459 7.75353 10.5301 7.66386 10.661 7.51596C10.7917 7.36821 10.8586 7.17448 10.8483 6.97755L10.7691 5.46514C10.7587 5.26821 10.6719 5.08254 10.5265 4.94927C10.3808 4.81586 10.1882 4.74594 9.99088 4.75628C9.79352 4.76662 9.60929 4.8563 9.47841 5.00419C9.34766 5.15194 9.28074 5.34567 9.29106 5.5426L9.37032 7.05501C9.38064 7.25194 9.46744 7.43761 9.61292 7.57088C9.75855 7.70429 9.95114 7.77422 10.1485 7.76387Z" fill="url(#paint4_linear_4651_14722)"/>
<path fill-rule="evenodd" clip-rule="evenodd" d="M14.0488 8.94899C14.1316 8.79273 14.267 8.67067 14.4316 8.60575L14.432 8.60556L15.8922 8.02353C15.9832 7.9877 16.0803 7.97041 16.1781 7.97274C16.2758 7.97508 16.372 7.99697 16.4612 8.03703C16.5504 8.07708 16.6307 8.13447 16.6976 8.2057C16.7645 8.27692 16.8169 8.36061 16.8518 8.45192C16.8867 8.54321 16.9035 8.64047 16.9014 8.73819C16.8994 8.8359 16.8784 8.93235 16.8396 9.02205C16.8007 9.11177 16.7448 9.19307 16.6747 9.26121C16.6048 9.32922 16.5221 9.38276 16.4314 9.41859L16.4308 9.41881L14.9727 10C14.8982 10.0305 14.819 10.0477 14.7386 10.0509C14.5623 10.0597 14.3892 10.0045 14.25 9.89606C14.1104 9.78728 14.0142 9.6322 13.9776 9.45913C13.9409 9.28609 13.966 9.1053 14.0488 8.94899Z" fill="#42FEDA"/>
<path fill-rule="evenodd" clip-rule="evenodd" d="M14.0488 8.94899C14.1316 8.79273 14.267 8.67067 14.4316 8.60575L14.432 8.60556L15.8922 8.02353C15.9832 7.9877 16.0803 7.97041 16.1781 7.97274C16.2758 7.97508 16.372 7.99697 16.4612 8.03703C16.5504 8.07708 16.6307 8.13447 16.6976 8.2057C16.7645 8.27692 16.8169 8.36061 16.8518 8.45192C16.8867 8.54321 16.9035 8.64047 16.9014 8.73819C16.8994 8.8359 16.8784 8.93235 16.8396 9.02205C16.8007 9.11177 16.7448 9.19307 16.6747 9.26121C16.6048 9.32922 16.5221 9.38276 16.4314 9.41859L16.4308 9.41881L14.9727 10C14.8982 10.0305 14.819 10.0477 14.7386 10.0509C14.5623 10.0597 14.3892 10.0045 14.25 9.89606C14.1104 9.78728 14.0142 9.6322 13.9776 9.45913C13.9409 9.28609 13.966 9.1053 14.0488 8.94899Z" fill="url(#paint5_linear_4651_14722)"/>
<path fill-rule="evenodd" clip-rule="evenodd" d="M18.8726 6.55367L17.6197 5.40596L16.4937 6.67834L17.7466 7.82606L18.8726 6.55367Z" fill="#42FEDA"/>
<path fill-rule="evenodd" clip-rule="evenodd" d="M18.8726 6.55367L17.6197 5.40596L16.4937 6.67834L17.7466 7.82606L18.8726 6.55367Z" fill="url(#paint6_linear_4651_14722)"/>
<path fill-rule="evenodd" clip-rule="evenodd" d="M12.6715 5.01331C13.259 4.98253 13.7029 4.47458 13.6721 3.88718C13.6413 3.29978 13.1468 2.84101 12.5593 2.8718C11.9718 2.90259 11.528 3.41053 11.5588 3.99793C11.5895 4.58534 12.084 5.0441 12.6715 5.01331Z" fill="#42FEDA"/>
<path fill-rule="evenodd" clip-rule="evenodd" d="M12.6715 5.01331C13.259 4.98253 13.7029 4.47458 13.6721 3.88718C13.6413 3.29978 13.1468 2.84101 12.5593 2.8718C11.9718 2.90259 11.528 3.41053 11.5588 3.99793C11.5895 4.58534 12.084 5.0441 12.6715 5.01331Z" fill="url(#paint7_linear_4651_14722)"/>
<defs>
<linearGradient id="paint0_linear_4651_14722" x1="2.97739" y1="11.4091" x2="20.1029" y2="10.5116" gradientUnits="userSpaceOnUse">
<stop stop-color="#6989ED"/>
<stop offset="1" stop-color="#6989ED" stop-opacity="0"/>
</linearGradient>
<linearGradient id="paint1_linear_4651_14722" x1="2.97739" y1="11.4091" x2="20.1029" y2="10.5116" gradientUnits="userSpaceOnUse">
<stop stop-color="#6989ED"/>
<stop offset="1" stop-color="#6989ED" stop-opacity="0"/>
</linearGradient>
<linearGradient id="paint2_linear_4651_14722" x1="2.97739" y1="11.4091" x2="20.1029" y2="10.5116" gradientUnits="userSpaceOnUse">
<stop stop-color="#6989ED"/>
<stop offset="1" stop-color="#6989ED" stop-opacity="0"/>
</linearGradient>
<linearGradient id="paint3_linear_4651_14722" x1="2.97739" y1="11.4091" x2="20.1029" y2="10.5116" gradientUnits="userSpaceOnUse">
<stop stop-color="#6989ED"/>
<stop offset="1" stop-color="#6989ED" stop-opacity="0"/>
</linearGradient>
<linearGradient id="paint4_linear_4651_14722" x1="2.97739" y1="11.4091" x2="20.1029" y2="10.5116" gradientUnits="userSpaceOnUse">
<stop stop-color="#6989ED"/>
<stop offset="1" stop-color="#6989ED" stop-opacity="0"/>
</linearGradient>
<linearGradient id="paint5_linear_4651_14722" x1="2.97739" y1="11.4091" x2="20.1029" y2="10.5116" gradientUnits="userSpaceOnUse">
<stop stop-color="#6989ED"/>
<stop offset="1" stop-color="#6989ED" stop-opacity="0"/>
</linearGradient>
<linearGradient id="paint6_linear_4651_14722" x1="2.97739" y1="11.4091" x2="20.1029" y2="10.5116" gradientUnits="userSpaceOnUse">
<stop stop-color="#6989ED"/>
<stop offset="1" stop-color="#6989ED" stop-opacity="0"/>
</linearGradient>
<linearGradient id="paint7_linear_4651_14722" x1="2.97739" y1="11.4091" x2="20.1029" y2="10.5116" gradientUnits="userSpaceOnUse">
<stop stop-color="#6989ED"/>
<stop offset="1" stop-color="#6989ED" stop-opacity="0"/>
</linearGradient>
</defs>
</svg>
