<svg width="23" height="25" viewBox="0 0 23 25" fill="none" xmlns="http://www.w3.org/2000/svg">
<path fill-rule="evenodd" clip-rule="evenodd" d="M16.3817 8.20573L12.8356 11.7832L12.8342 11.7817L1.14011 0C1.42142 0.000412562 1.69764 0.0756868 1.9408 0.218206L16.3817 8.20573ZM9.29506e-06 22.9505V22.5856L0 22.5779V1.67725L9.29506e-06 1.66955V1.31212C9.29506e-06 0.746495 0.196619 0.31439 0.51433 0.127765L12.4093 12.1148L12.2692 12.2561V12.2634L11.7147 12.8154L0.504357 24.1234C0.19377 23.9166 0.0042703 23.5161 9.29506e-06 22.9505ZM12.8356 12.4479L1.1045 24.2813C1.39893 24.2862 1.68895 24.2087 1.94223 24.0573L16.4116 16.0483L12.8356 12.4479ZM16.8077 8.44117L21.6132 11.1042H21.6133C22.6276 11.6655 22.6276 12.5943 21.6118 13.1585L16.8347 15.8143L13.1647 12.1162L16.8077 8.44117Z" fill="white"/>
</svg>
