<svg width="9" height="9" viewBox="0 0 9 9" fill="none" xmlns="http://www.w3.org/2000/svg">
<path d="M5.22162 0.217728L8.03796 3.71773C8.21237 3.93414 8.20946 4.24331 8.03154 4.45681L5.11487 7.95681C4.99937 8.09506 4.83371 8.16681 4.66629 8.16681C4.53504 8.16681 4.40262 8.12248 4.29354 8.03148C4.04562 7.82556 4.01237 7.45748 4.21887 7.21014L6.82987 4.07706L4.31221 0.949228C4.11037 0.698395 4.15004 0.330895 4.40146 0.129062C4.65229 -0.0733551 5.01921 -0.0331051 5.22162 0.217728Z" fill="#00002C"/>
<path d="M0.318054 0.129061C0.568887 -0.0727723 0.935803 -0.0331057 1.13822 0.217728L3.95455 3.71773C4.12839 3.93414 4.12605 4.24331 3.94814 4.45681L1.03147 7.95681C0.91597 8.09506 0.750303 8.16681 0.582887 8.16681C0.451637 8.16681 0.31922 8.12248 0.210137 8.03148C-0.0377796 7.82556 -0.0710296 7.45748 0.13547 7.21014L2.74589 4.07706L0.228804 0.949228C0.0269704 0.698394 0.0672203 0.330894 0.318054 0.129061Z" fill="#00002C"/>
</svg>
